<svg width="15" height="16" viewBox="0 0 15 16" fill="none" xmlns="http://www.w3.org/2000/svg">
<g clip-path="url(#clip0_293_14)">
<path d="M5.33504 13V5.66667C5.33504 5.56944 5.30379 5.48958 5.24129 5.42708C5.17879 5.36458 5.09893 5.33333 5.00171 5.33333H4.33504C4.23782 5.33333 4.15796 5.36458 4.09546 5.42708C4.03296 5.48958 4.00171 5.56944 4.00171 5.66667V13C4.00171 13.0972 4.03296 13.1771 4.09546 13.2396C4.15796 13.3021 4.23782 13.3333 4.33504 13.3333H5.00171C5.09893 13.3333 5.17879 13.3021 5.24129 13.2396C5.30379 13.1771 5.33504 13.0972 5.33504 13ZM8.00171 13V5.66667C8.00171 5.56944 7.97046 5.48958 7.90796 5.42708C7.84546 5.36458 7.7656 5.33333 7.66838 5.33333H7.00171C6.90449 5.33333 6.82463 5.36458 6.76213 5.42708C6.69963 5.48958 6.66838 5.56944 6.66838 5.66667V13C6.66838 13.0972 6.69963 13.1771 6.76213 13.2396C6.82463 13.3021 6.90449 13.3333 7.00171 13.3333H7.66838C7.7656 13.3333 7.84546 13.3021 7.90796 13.2396C7.97046 13.1771 8.00171 13.0972 8.00171 13ZM10.6684 13V5.66667C10.6684 5.56944 10.6371 5.48958 10.5746 5.42708C10.5121 5.36458 10.4323 5.33333 10.335 5.33333H9.66838C9.57115 5.33333 9.49129 5.36458 9.42879 5.42708C9.36629 5.48958 9.33504 5.56944 9.33504 5.66667V13C9.33504 13.0972 9.36629 13.1771 9.42879 13.2396C9.49129 13.3021 9.57115 13.3333 9.66838 13.3333H10.335C10.4323 13.3333 10.5121 13.3021 10.5746 13.2396C10.6371 13.1771 10.6684 13.0972 10.6684 13ZM5.00171 2.66667H9.66838L9.16838 1.44792C9.11976 1.38542 9.06074 1.34722 8.99129 1.33333H5.68921C5.61976 1.34722 5.56074 1.38542 5.51213 1.44792L5.00171 2.66667ZM14.6684 3V3.66667C14.6684 3.76389 14.6371 3.84375 14.5746 3.90625C14.5121 3.96875 14.4323 4 14.335 4H13.335V13.875C13.335 14.4514 13.1718 14.9497 12.8455 15.3698C12.5191 15.7899 12.1267 16 11.6684 16H3.00171C2.54338 16 2.15101 15.7969 1.82463 15.3906C1.49824 14.9844 1.33504 14.4931 1.33504 13.9167V4H0.335042C0.23782 4 0.157959 3.96875 0.095459 3.90625C0.032959 3.84375 0.00170898 3.76389 0.00170898 3.66667V3C0.00170898 2.90278 0.032959 2.82292 0.095459 2.76042C0.157959 2.69792 0.23782 2.66667 0.335042 2.66667H3.55379L4.28296 0.927083C4.38713 0.670139 4.57463 0.451389 4.84546 0.270833C5.11629 0.0902778 5.3906 0 5.66838 0H9.00171C9.27949 0 9.55379 0.0902778 9.82463 0.270833C10.0955 0.451389 10.283 0.670139 10.3871 0.927083L11.1163 2.66667H14.335C14.4323 2.66667 14.5121 2.69792 14.5746 2.76042C14.6371 2.82292 14.6684 2.90278 14.6684 3Z" fill="white" fill-opacity="0.560784"/>
</g>
<defs>
<clipPath id="clip0_293_14">
<rect width="14.67" height="16" fill="white"/>
</clipPath>
</defs>
</svg>
