<svg width="10" height="12" viewBox="0 0 10 12" fill="none" xmlns="http://www.w3.org/2000/svg">
<g clip-path="url(#clip0_202_2)">
<path d="M9.99944 9.92969C9.99944 10.4974 9.8367 10.9844 9.5112 11.3906C9.18571 11.7969 8.79381 12 8.33551 12H1.66417C1.20588 12 0.813981 11.7969 0.488486 11.3906C0.162992 10.9844 0.000244141 10.4974 0.000244141 9.92969C0.000244141 9.48698 0.0223778 9.06901 0.0666451 8.67578C0.110912 8.28255 0.192937 7.88672 0.312719 7.48828C0.432501 7.08984 0.584833 6.7487 0.769714 6.46484C0.954595 6.18099 1.19937 5.94922 1.50403 5.76953C1.80869 5.58984 2.15893 5.5 2.55473 5.5C3.23696 6.16667 4.052 6.5 4.99984 6.5C5.94769 6.5 6.76272 6.16667 7.44496 5.5C7.84076 5.5 8.191 5.58984 8.49566 5.76953C8.80032 5.94922 9.04509 6.18099 9.22997 6.46484C9.41486 6.7487 9.56719 7.08984 9.68697 7.48828C9.80675 7.88672 9.88878 8.28255 9.93304 8.67578C9.97731 9.06901 9.99944 9.48698 9.99944 9.92969ZM7.9996 3C7.9996 3.82812 7.70666 4.53516 7.12077 5.12109C6.53488 5.70703 5.8279 6 4.99984 6C4.17179 6 3.46481 5.70703 2.87892 5.12109C2.29303 4.53516 2.00008 3.82812 2.00008 3C2.00008 2.17188 2.29303 1.46484 2.87892 0.878906C3.46481 0.292969 4.17179 0 4.99984 0C5.8279 0 6.53488 0.292969 7.12077 0.878906C7.70666 1.46484 7.9996 2.17188 7.9996 3Z" fill="#CCCCCC"/>
</g>
<defs>
<clipPath id="clip0_202_2">
<rect width="10" height="12" fill="white"/>
</clipPath>
</defs>
</svg>
