<svg width="15" height="15" viewBox="0 0 15 15" fill="none" xmlns="http://www.w3.org/2000/svg">
<g clip-path="url(#clip0_269_8)">
<path d="M3.54492 13.75L4.43359 12.8613L2.13867 10.5664L1.25 11.4551V12.5H2.5V13.75H3.54492ZM8.65234 4.6875C8.65234 4.54427 8.58073 4.47266 8.4375 4.47266C8.3724 4.47266 8.31706 4.49544 8.27148 4.54102L2.97852 9.83398C2.93294 9.87956 2.91016 9.9349 2.91016 10C2.91016 10.1432 2.98177 10.2148 3.125 10.2148C3.1901 10.2148 3.24544 10.1921 3.29102 10.1465L8.58398 4.85352C8.62956 4.80794 8.65234 4.7526 8.65234 4.6875ZM8.125 2.8125L12.1875 6.875L4.0625 15H0V10.9375L8.125 2.8125ZM14.7949 3.75C14.7949 4.09505 14.6745 4.38802 14.4336 4.62891L12.8125 6.25L8.75 2.1875L10.3711 0.576172C10.6055 0.328776 10.8984 0.205078 11.25 0.205078C11.5951 0.205078 11.8913 0.328776 12.1387 0.576172L14.4336 2.86133C14.6745 3.11523 14.7949 3.41146 14.7949 3.75Z" fill="white" fill-opacity="0.784314"/>
</g>
<defs>
<clipPath id="clip0_269_8">
<rect width="15" height="15" fill="white"/>
</clipPath>
</defs>
</svg>
