<svg width="16" height="11" viewBox="0 0 16 11" fill="none" xmlns="http://www.w3.org/2000/svg">
<path d="M15.5873 2.56589L8.93198 10.3255C8.85275 10.4176 8.76694 10.4827 8.67456 10.5207C8.58218 10.5593 8.48322 10.5786 8.37768 10.5785C8.27214 10.5785 8.17321 10.559 8.0809 10.5202C7.98858 10.4821 7.90288 10.4169 7.8238 10.3246L1.16117 2.5543C0.976649 2.3391 0.884517 2.07021 0.884776 1.74763C0.885035 1.42505 0.984202 1.14863 1.18228 0.918373C1.38035 0.688117 1.61131 0.573096 1.87517 0.573308C2.13902 0.57352 2.3698 0.688912 2.5675 0.919486L8.38 7.69835L14.2034 0.928835C14.3883 0.71393 14.6158 0.606585 14.886 0.606803C15.1567 0.60702 15.3909 0.722416 15.5886 0.952989C15.7863 1.18356 15.885 1.45246 15.8848 1.75968C15.8845 2.0669 15.7854 2.33564 15.5873 2.56589Z" fill="white" fill-opacity="0.55"/>
</svg>
