<svg width="22" height="22" viewBox="0 0 22 22" fill="none" xmlns="http://www.w3.org/2000/svg">
<path d="M19.1607 5.40579L15.8291 3.31373L10.4047 11.9529L13.7343 14.0429L19.1607 5.40579ZM9.89667 14.6094L9.82311 16.5722L11.5604 15.653L13.176 14.8005L9.96336 12.782L9.89667 14.6094V14.6094ZM20.0497 2.22748L18.3082 1.13229C18.0976 1.00015 17.8431 0.957065 17.6008 1.0125C17.3584 1.06794 17.148 1.21736 17.0157 1.42791L16.3282 2.51966L19.6578 4.61104L20.3453 3.52066C20.6203 3.08066 20.4897 2.5011 20.0497 2.2261V2.22748ZM17.3237 18.6037C17.3237 18.7928 17.169 18.9475 16.98 18.9475H3.91748C3.82631 18.9475 3.73888 18.9113 3.67441 18.8468C3.60995 18.7823 3.57373 18.6949 3.57373 18.6037V5.54123C3.57373 5.45006 3.60995 5.36262 3.67441 5.29816C3.73888 5.23369 3.82631 5.19748 3.91748 5.19748H13.0227L14.318 3.13498H3.91748C2.59061 3.13498 1.51123 4.21435 1.51123 5.54123V18.6037C1.51123 19.9306 2.59061 21.01 3.91748 21.01H16.98C18.3069 21.01 19.3862 19.9306 19.3862 18.6037V7.62916L17.3237 10.9127V18.6058V18.6037Z" fill="white" fill-opacity="0.560784"/>
</svg>
