<svg width="24" height="24" viewBox="0 0 24 24" fill="none" xmlns="http://www.w3.org/2000/svg">
<path d="M21.3937 5.60623L18.3937 2.60623C18.3421 2.55264 18.2803 2.51001 18.2118 2.48089C18.1433 2.45178 18.0697 2.43677 17.9953 2.43677C17.9209 2.43677 17.8473 2.45178 17.7788 2.48089C17.7104 2.51001 17.6485 2.55264 17.5969 2.60623L8.59687 11.6062C8.54567 11.6581 8.50523 11.7196 8.47788 11.7872C8.45053 11.8548 8.43681 11.9271 8.4375 12V15C8.4375 15.1492 8.49676 15.2922 8.60225 15.3977C8.70774 15.5032 8.85082 15.5625 9 15.5625H12C12.0738 15.5636 12.147 15.5492 12.2149 15.5201C12.2827 15.491 12.3437 15.448 12.3937 15.3937L21.3937 6.39373C21.4471 6.34295 21.4895 6.28186 21.5185 6.21418C21.5475 6.14649 21.5625 6.07362 21.5625 5.99998C21.5625 5.92634 21.5475 5.85347 21.5185 5.78579C21.4895 5.7181 21.4471 5.65702 21.3937 5.60623V5.60623ZM11.7656 14.4375H9.5625V12.2344L15.75 6.04686L17.9531 8.24998L11.7656 14.4375ZM18.75 7.45311L16.5469 5.24998L18 3.79686L20.2031 5.99998L18.75 7.45311ZM20.8125 11.25V19.5C20.8125 19.8481 20.6742 20.1819 20.4281 20.4281C20.1819 20.6742 19.8481 20.8125 19.5 20.8125H4.5C4.1519 20.8125 3.81806 20.6742 3.57192 20.4281C3.32578 20.1819 3.1875 19.8481 3.1875 19.5V4.49998C3.1875 4.15189 3.32578 3.81805 3.57192 3.57191C3.81806 3.32576 4.1519 3.18748 4.5 3.18748H12.75C12.8992 3.18748 13.0423 3.24675 13.1477 3.35224C13.2532 3.45772 13.3125 3.6008 13.3125 3.74998C13.3125 3.89917 13.2532 4.04224 13.1477 4.14773C13.0423 4.25322 12.8992 4.31248 12.75 4.31248H4.5C4.45027 4.31248 4.40258 4.33224 4.36742 4.3674C4.33225 4.40256 4.3125 4.45025 4.3125 4.49998V19.5C4.3125 19.5497 4.33225 19.5974 4.36742 19.6326C4.40258 19.6677 4.45027 19.6875 4.5 19.6875H19.5C19.5497 19.6875 19.5974 19.6677 19.6326 19.6326C19.6677 19.5974 19.6875 19.5497 19.6875 19.5V11.25C19.6875 11.1008 19.7468 10.9577 19.8523 10.8522C19.9577 10.7467 20.1008 10.6875 20.25 10.6875C20.3992 10.6875 20.5423 10.7467 20.6477 10.8522C20.7532 10.9577 20.8125 11.1008 20.8125 11.25Z" fill="white" fill-opacity="0.784314"/>
</svg>
