<svg width="16" height="16" viewBox="0 0 16 16" fill="none" xmlns="http://www.w3.org/2000/svg">
<g clip-path="url(#clip0_293_8)">
<path d="M9.25 12H6.75C6.33437 12 6 11.6656 6 11.25V5.99998H3.25938C2.70313 5.99998 2.425 5.3281 2.81875 4.93435L7.57188 0.178101C7.80625 -0.0562744 8.19063 -0.0562744 8.425 0.178101L13.1812 4.93435C13.575 5.3281 13.2969 5.99998 12.7406 5.99998H10V11.25C10 11.6656 9.66563 12 9.25 12ZM16 11.75V15.25C16 15.6656 15.6656 16 15.25 16H0.75C0.334375 16 0 15.6656 0 15.25V11.75C0 11.3344 0.334375 11 0.75 11H5V11.25C5 12.2156 5.78438 13 6.75 13H9.25C10.2156 13 11 12.2156 11 11.25V11H15.25C15.6656 11 16 11.3344 16 11.75ZM12.125 14.5C12.125 14.1562 11.8438 13.875 11.5 13.875C11.1562 13.875 10.875 14.1562 10.875 14.5C10.875 14.8437 11.1562 15.125 11.5 15.125C11.8438 15.125 12.125 14.8437 12.125 14.5ZM14.125 14.5C14.125 14.1562 13.8438 13.875 13.5 13.875C13.1562 13.875 12.875 14.1562 12.875 14.5C12.875 14.8437 13.1562 15.125 13.5 15.125C13.8438 15.125 14.125 14.8437 14.125 14.5Z" fill="white" fill-opacity="0.560784"/>
</g>
<defs>
<clipPath id="clip0_293_8">
<rect width="16" height="16" fill="white"/>
</clipPath>
</defs>
</svg>
