<svg width="24" height="24" viewBox="0 0 24 24" fill="none" xmlns="http://www.w3.org/2000/svg">
<g clip-path="url(#clip0_251_12)">
<path d="M13.875 18H10.125C9.50156 18 9 17.4985 9 16.875V9.00002H4.88906C4.05469 9.00002 3.6375 7.99221 4.22812 7.40159L11.3578 0.267212C11.7094 -0.0843506 12.2859 -0.0843506 12.6375 0.267212L19.7719 7.40159C20.3625 7.99221 19.9453 9.00002 19.1109 9.00002H15V16.875C15 17.4985 14.4984 18 13.875 18ZM24 17.625V22.875C24 23.4985 23.4984 24 22.875 24H1.125C0.501562 24 0 23.4985 0 22.875V17.625C0 17.0016 0.501562 16.5 1.125 16.5H7.5V16.875C7.5 18.3235 8.67656 19.5 10.125 19.5H13.875C15.3234 19.5 16.5 18.3235 16.5 16.875V16.5H22.875C23.4984 16.5 24 17.0016 24 17.625ZM18.1875 21.75C18.1875 21.2344 17.7656 20.8125 17.25 20.8125C16.7344 20.8125 16.3125 21.2344 16.3125 21.75C16.3125 22.2656 16.7344 22.6875 17.25 22.6875C17.7656 22.6875 18.1875 22.2656 18.1875 21.75ZM21.1875 21.75C21.1875 21.2344 20.7656 20.8125 20.25 20.8125C19.7344 20.8125 19.3125 21.2344 19.3125 21.75C19.3125 22.2656 19.7344 22.6875 20.25 22.6875C20.7656 22.6875 21.1875 22.2656 21.1875 21.75Z" fill="white" fill-opacity="0.784314"/>
</g>
<defs>
<clipPath id="clip0_251_12">
<rect width="24" height="24" fill="white"/>
</clipPath>
</defs>
</svg>
